<svg width="14" height="14" viewBox="0 0 14 14" fill="none" xmlns="http://www.w3.org/2000/svg">
<path fill-rule="evenodd" clip-rule="evenodd" d="M6.91194 0.729493H6.85434C6.46651 0.729472 6.13232 0.729455 5.86473 0.765432C5.57794 0.803989 5.30304 0.89094 5.08006 1.11392C4.85708 1.33689 4.77013 1.6118 4.73157 1.89859C4.6956 2.16619 4.69562 2.50036 4.69564 2.88819L4.69564 4.30418C4.5588 4.25581 4.41154 4.2295 4.25814 4.2295H2.50814C1.78326 4.2295 1.19564 4.81712 1.19564 5.542V12.3962H1.0498C0.80818 12.3962 0.612305 12.592 0.612305 12.8337C0.612305 13.0753 0.80818 13.2712 1.0498 13.2712H12.7165C12.9581 13.2712 13.154 13.0753 13.154 12.8337C13.154 12.592 12.9581 12.3962 12.7165 12.3962H12.5706V8.45866C12.5706 7.73379 11.983 7.14616 11.2581 7.14616H9.50814C9.35473 7.14616 9.20748 7.17248 9.07064 7.22085L9.07064 2.8882C9.07066 2.50036 9.07068 2.16619 9.0347 1.89859C8.99614 1.6118 8.90919 1.33689 8.68622 1.11392C8.46324 0.89094 8.18833 0.803989 7.90155 0.765432C7.63395 0.729455 7.29977 0.729472 6.91194 0.729493ZM11.6956 12.3962V8.45866C11.6956 8.21704 11.4998 8.02116 11.2581 8.02116H9.50814C9.26651 8.02116 9.07064 8.21704 9.07064 8.45866V12.3962H11.6956ZM8.19564 12.3962V2.917C8.19564 2.49215 8.19471 2.21752 8.1675 2.01518C8.14199 1.82542 8.1008 1.76594 8.0675 1.73264C8.03419 1.69933 7.97472 1.65814 7.78496 1.63263C7.58261 1.60542 7.30799 1.6045 6.88314 1.6045C6.45829 1.6045 6.18367 1.60542 5.98132 1.63263C5.79156 1.65814 5.73208 1.69933 5.69878 1.73264C5.66547 1.76594 5.62428 1.82542 5.59877 2.01518C5.57157 2.21752 5.57064 2.49215 5.57064 2.917V12.3962H8.19564ZM4.69564 12.3962V5.542C4.69564 5.30037 4.49976 5.1045 4.25814 5.1045H2.50814C2.26651 5.1045 2.07064 5.30037 2.07064 5.542V12.3962H4.69564Z" fill="#1C1E32" fill-opacity="0.6"/>
</svg>
