<svg width="12" height="14" viewBox="0 0 12 14" fill="none" xmlns="http://www.w3.org/2000/svg">
<path fill-rule="evenodd" clip-rule="evenodd" d="M5.9998 4.81283C4.79168 4.81283 3.8123 5.7922 3.8123 7.00033C3.8123 8.20845 4.79168 9.18783 5.9998 9.18783C7.20792 9.18783 8.1873 8.20845 8.1873 7.00033C8.1873 5.7922 7.20792 4.81283 5.9998 4.81283ZM4.6873 7.00033C4.6873 6.27545 5.27492 5.68783 5.9998 5.68783C6.72467 5.68783 7.3123 6.27545 7.3123 7.00033C7.3123 7.7252 6.72467 8.31283 5.9998 8.31283C5.27492 8.31283 4.6873 7.7252 4.6873 7.00033Z" fill="#1C1E32" fill-opacity="0.6"/>
<path fill-rule="evenodd" clip-rule="evenodd" d="M5.98506 0.729492C5.72579 0.729488 5.50935 0.729484 5.33166 0.741608C5.14669 0.754229 4.97196 0.781437 4.80257 0.851602C4.4095 1.01442 4.09721 1.32671 3.9344 1.71977C3.84964 1.9244 3.82669 2.14006 3.81792 2.37447C3.81087 2.5629 3.71578 2.72012 3.57543 2.80115C3.43509 2.88217 3.25139 2.88592 3.08468 2.79781C2.87729 2.68819 2.67905 2.60024 2.45945 2.57133C2.03764 2.5158 1.61104 2.6301 1.27351 2.8891C1.12805 3.00072 1.01712 3.13843 0.913705 3.29231C0.81436 3.44013 0.706143 3.62758 0.576512 3.85211L0.56178 3.87763C0.432143 4.10216 0.323921 4.2896 0.245575 4.44954C0.164018 4.61605 0.100219 4.78097 0.0762872 4.96275C0.0207547 5.38456 0.135061 5.81116 0.394059 6.14869C0.528878 6.32439 0.704138 6.45209 0.902728 6.57687C1.06243 6.67722 1.15106 6.83822 1.15105 7.00031C1.15104 7.16239 1.06242 7.32337 0.902731 7.42371C0.704116 7.5485 0.528833 7.67621 0.394002 7.85192C0.135004 8.18946 0.0206976 8.61605 0.0762301 9.03786C0.100162 9.21964 0.163961 9.38456 0.245518 9.55107C0.323863 9.71101 0.432083 9.89845 0.561717 10.123L0.576454 10.1485C0.706085 10.373 0.814302 10.5605 0.913648 10.7083C1.01707 10.8622 1.12799 10.9999 1.27345 11.1115C1.61099 11.3705 2.03758 11.4848 2.45939 11.4293C2.67898 11.4004 2.87721 11.3124 3.08459 11.2028C3.25132 11.1147 3.43505 11.1184 3.57541 11.1995C3.71576 11.2805 3.81087 11.4378 3.81792 11.6262C3.82669 11.8606 3.84964 12.0763 3.9344 12.2809C4.09721 12.6739 4.4095 12.9862 4.80257 13.149C4.97196 13.2192 5.14669 13.2464 5.33166 13.259C5.50935 13.2712 5.72579 13.2712 5.98506 13.2712H6.01453C6.27379 13.2712 6.49023 13.2712 6.66792 13.259C6.8529 13.2464 7.02762 13.2192 7.19701 13.149C7.59008 12.9862 7.90237 12.6739 8.06518 12.2809C8.14994 12.0762 8.1729 11.8606 8.18166 11.6262C8.18871 11.4377 8.2838 11.2805 8.42414 11.1995C8.56449 11.1184 8.74822 11.1147 8.91496 11.2028C9.12232 11.3124 9.32055 11.4003 9.54013 11.4292C9.96195 11.4848 10.3885 11.3705 10.7261 11.1115C10.8715 10.9999 10.9825 10.8621 11.0859 10.7083C11.1852 10.5604 11.2934 10.373 11.423 10.1485L11.4378 10.123C11.5674 9.89845 11.6757 9.71097 11.754 9.55103C11.8356 9.38452 11.8994 9.2196 11.9233 9.03782C11.9788 8.61601 11.8645 8.18942 11.6055 7.85188C11.4707 7.67618 11.2954 7.54847 11.0968 7.42368C10.9371 7.32335 10.8485 7.16236 10.8485 7.0003C10.8485 6.83824 10.9372 6.67728 11.0968 6.57697C11.2954 6.45217 11.4707 6.32445 11.6056 6.14873C11.8646 5.8112 11.9789 5.3846 11.9234 4.96279C11.8994 4.78101 11.8356 4.61609 11.7541 4.44958C11.6757 4.28965 11.5675 4.10223 11.4379 3.87772L11.4231 3.85218C11.2935 3.62764 11.1853 3.44017 11.0859 3.29235C10.9825 3.13847 10.8716 3.00076 10.7261 2.88914C10.3886 2.63014 9.962 2.51584 9.54019 2.57137C9.32061 2.60028 9.12237 2.68822 8.91499 2.79783C8.74826 2.88595 8.56453 2.8822 8.42418 2.80117C8.28382 2.72013 8.18871 2.56289 8.18166 2.37444C8.17289 2.14004 8.14994 1.92439 8.06518 1.71977C7.90237 1.3267 7.59008 1.01442 7.19701 0.851602C7.02762 0.781437 6.8529 0.754229 6.66792 0.741608C6.49023 0.729484 6.27379 0.729488 6.01452 0.729492H5.98506ZM5.13742 1.66C5.18242 1.64135 5.2508 1.62416 5.39122 1.61458C5.53558 1.60473 5.72201 1.60449 5.99979 1.60449C6.27758 1.60449 6.464 1.60473 6.60836 1.61458C6.74878 1.62416 6.81716 1.64135 6.86216 1.66C7.04083 1.734 7.18278 1.87595 7.25679 2.05462C7.28013 2.11098 7.29948 2.19883 7.30727 2.40714C7.32456 2.86936 7.56314 3.31441 7.98668 3.55894C8.41021 3.80347 8.91493 3.78756 9.32386 3.57142C9.50816 3.47402 9.59392 3.44685 9.6544 3.43888C9.84613 3.41364 10.04 3.4656 10.1935 3.58332C10.2321 3.61298 10.2812 3.6636 10.3597 3.78042C10.4404 3.90051 10.5338 4.06184 10.6727 4.30241C10.8116 4.54298 10.9046 4.70455 10.9683 4.83449C11.0302 4.96089 11.0495 5.0287 11.0558 5.077C11.0811 5.26873 11.0291 5.46264 10.9114 5.61606C10.8743 5.66446 10.8078 5.72515 10.6313 5.83607C10.2397 6.08213 9.97356 6.51123 9.97353 7.00025C9.97351 7.48932 10.2396 7.91848 10.6313 8.16457C10.8078 8.27547 10.8742 8.33615 10.9113 8.38455C11.0291 8.53797 11.081 8.73188 11.0558 8.92361C11.0494 8.97191 11.0301 9.03972 10.9682 9.16612C10.9046 9.29606 10.8116 9.45763 10.6727 9.6982C10.5338 9.93877 10.4404 10.1001 10.3596 10.2202C10.2811 10.337 10.2321 10.3876 10.1934 10.4173C10.04 10.535 9.84608 10.587 9.65434 10.5617C9.59387 10.5538 9.50811 10.5266 9.32382 10.4292C8.91487 10.2131 8.41014 10.1972 7.98659 10.4417C7.56311 10.6863 7.32456 11.1313 7.30727 11.5935C7.29949 11.8018 7.28013 11.8897 7.25679 11.946C7.18278 12.1247 7.04083 12.2666 6.86216 12.3407C6.81716 12.3593 6.74878 12.3765 6.60836 12.3861C6.464 12.3959 6.27758 12.3962 5.99979 12.3962C5.72201 12.3962 5.53558 12.3959 5.39122 12.3861C5.2508 12.3765 5.18242 12.3593 5.13742 12.3407C4.95875 12.2666 4.8168 12.1247 4.7428 11.946C4.71945 11.8897 4.7001 11.8018 4.69231 11.5935C4.67502 11.1313 4.43644 10.6862 4.0129 10.4417C3.58937 10.1972 3.08466 10.2131 2.67572 10.4292C2.49143 10.5266 2.40566 10.5538 2.34518 10.5618C2.15345 10.587 1.95954 10.5351 1.80612 10.4173C1.76747 10.3877 1.71839 10.3371 1.63988 10.2202C1.55917 10.1001 1.46576 9.93881 1.32686 9.69824C1.18797 9.45767 1.09496 9.2961 1.03131 9.16616C0.969399 9.03976 0.950103 8.97195 0.943744 8.92365C0.918502 8.73192 0.970459 8.53801 1.08819 8.38459C1.12532 8.33619 1.19174 8.2755 1.36825 8.1646C1.75989 7.91852 2.02602 7.48941 2.02605 7.00036C2.02608 6.51126 1.75993 6.08208 1.36825 5.83598C1.19178 5.7251 1.12538 5.66441 1.08824 5.61602C0.970517 5.4626 0.918559 5.26869 0.943801 5.07696C0.95016 5.02866 0.969456 4.96085 1.03137 4.83445C1.09502 4.70451 1.18803 4.54294 1.32692 4.30237C1.46581 4.0618 1.55923 3.90047 1.63994 3.78038C1.71845 3.66356 1.76753 3.61294 1.80617 3.58328C1.9596 3.46556 2.15351 3.4136 2.34524 3.43884C2.40572 3.44681 2.49149 3.47398 2.67581 3.5714C3.08472 3.78753 3.58941 3.80344 4.01293 3.55892C4.43645 3.31441 4.67502 2.86937 4.69231 2.40717C4.7001 2.19884 4.71945 2.11098 4.7428 2.05462C4.8168 1.87595 4.95875 1.734 5.13742 1.66Z" fill="#1C1E32" fill-opacity="0.6"/>
</svg>
